<svg xmlns="http://www.w3.org/2000/svg" viewBox="0 0 183.99 183.99"><title>dollar</title><path d="M95,187a92,92,0,1,1,92-92A92.1,92.1,0,0,1,95,187ZM95,13a82,82,0,1,0,82,82A82.09,82.09,0,0,0,95,13Z" transform="translate(-3 -3)" style="fill:#f2f2f2"/><path d="M112.4,115.46a12,12,0,0,0-3.7-8.89Q105,102.95,96.22,100,84,96.29,78.4,90.29T72.81,75.06q0-9.41,5.48-15.44t15.06-7.17V39.88h8.55V52.5q9.64,1.32,15,8.09t5.37,18.54H111.72q0-8.12-3.84-12.9a12.63,12.63,0,0,0-10.39-4.78Q90.65,61.46,87,65t-3.62,9.86a12,12,0,0,0,3.82,9.34q3.82,3.48,12.57,6.32a52.92,52.92,0,0,1,13.66,6.26,22,22,0,0,1,7.23,7.95A23,23,0,0,1,123,115.34q0,9.7-5.83,15.61t-16.33,7v11H92.38V138q-10.67-1-16.73-7.6t-6.05-18H80.21q0,8,4.19,12.28t11.88,4.3q7.52,0,11.82-3.62A12.21,12.21,0,0,0,112.4,115.46Z" transform="translate(-3 -3)" style="fill:#f2f2f2"/></svg>