<?xml version="1.0" encoding="utf-8"?>
<!-- Generator: Adobe Illustrator 20.1.0, SVG Export Plug-In . SVG Version: 6.00 Build 0)  -->
<svg version="1.1" id="Layer_1" xmlns="http://www.w3.org/2000/svg" xmlns:xlink="http://www.w3.org/1999/xlink" x="0px" y="0px"
	 viewBox="0 0 190 190" style="enable-background:new 0 0 190 190;" xml:space="preserve">
<style type="text/css">
	.st0{fill:#F2F2F2;}
</style>
<g>
</g>
<g>
	<path class="st0" d="M95,187c-50.7,0-92-41.3-92-92S44.3,3,95,3s92,41.3,92,92S145.7,187,95,187z M95,13c-45.2,0-82,36.8-82,82
		c0,45.2,36.8,82,82,82c45.2,0,82-36.8,82-82C177,49.8,140.2,13,95,13z"/>
</g>
<path class="st0" d="M127.4,98c-3.8-5.5-8.5-10.5-12.6-15.8c-4.4-5.3-8.4-11-11.7-17c-4.4-8.8-5.2-21,6.3-29.4
	C98,41,86.5,46.1,75.1,51.5C67.7,54.6,63.2,62,63.7,70c0.4,8,3.4,15.6,8.6,21.6c4.7,5.9,9.7,11.6,14.7,17.3c0.4,0.4,0.8,0.9,1.1,1.4
	l0.1,0.1c-2.8,1.2-5.6,2.5-8.2,3.7c-1.9,0.9-3.8,1.7-5.7,2.6c-10.5,4.7-14.1,13.7-9.8,24.7c2.4,6.5,8.6,10.9,15.5,10.9
	c1.5,0,3-0.2,4.5-0.6h0.2c1.5-0.6,3-1.4,4.3-2.3c11.4-4.9,22.6-10.2,33.8-15.6c7.3-3.5,10.2-10.2,10.4-18.1
	C133.3,109.3,131.3,103.1,127.4,98z M83.4,147.9c-1.1,0.3-2.3,0.4-3.4,0.4c-5.4,0-10.1-3.3-11.9-8.4c-3.5-9-0.8-15.8,7.8-19.8
	c1.9-0.8,3.8-1.7,5.8-2.6c2.8-1.3,5.8-2.7,8.7-3.9c0.2,0,0.4-0.1,0.6-0.2c1.2,1.5,2.2,3.1,3.1,4.7c1.8,3.3,2.6,7,2.4,10.7
	C96.1,137.1,91.1,144.6,83.4,147.9z"/>
</svg>
