<?xml version="1.0" encoding="utf-8"?>
<!-- Generator: Adobe Illustrator 20.1.0, SVG Export Plug-In . SVG Version: 6.00 Build 0)  -->
<svg version="1.1" id="Layer_1" xmlns="http://www.w3.org/2000/svg" xmlns:xlink="http://www.w3.org/1999/xlink" x="0px" y="0px"
	 viewBox="0 0 64 64" style="enable-background:new 0 0 64 64;" xml:space="preserve">
<style type="text/css">
	.st0{fill:#D91C5C;}
</style>
<g>
	<path class="st0" d="M31.9,1.9C15.3,1.9,1.7,15.5,1.7,32.1c0,16.7,13.6,30.2,30.2,30.2s30.2-13.6,30.2-30.2
		C62.2,15.5,48.6,1.9,31.9,1.9z M31.9,59.1C17.1,59.1,5,47,5,32.1C5,17.3,17.1,5.2,31.9,5.2c14.9,0,26.9,12.1,26.9,26.9
		C58.9,47,46.8,59.1,31.9,59.1z"/>
	<polygon class="st0" points="46.3,15.6 31.9,30 17.5,15.6 15.4,17.7 29.8,32.1 15.4,46.5 17.5,48.7 31.9,34.2 46.3,48.7 48.5,46.5 
		34.1,32.1 48.5,17.7 	"/>
</g>
</svg>
