<?xml version="1.0" encoding="utf-8"?>
<!-- Generator: Adobe Illustrator 20.1.0, SVG Export Plug-In . SVG Version: 6.00 Build 0)  -->
<svg version="1.1" id="Layer_1" xmlns="http://www.w3.org/2000/svg" xmlns:xlink="http://www.w3.org/1999/xlink" x="0px" y="0px"
	 viewBox="0 0 24 24" style="enable-background:new 0 0 24 24;" xml:space="preserve">
<g>
	<path d="M21,3h-2V2c0-0.6-0.4-1-1-1s-1,0.4-1,1v1H7V2c0-0.6-0.4-1-1-1S5,1.4,5,2v1H3C1.3,3,0,4.3,0,6v14c0,1.7,1.3,3,3,3h18
		c1.7,0,3-1.3,3-3V6C24,4.3,22.7,3,21,3z M22,20c0,0.6-0.4,1-1,1H3c-0.6,0-1-0.4-1-1v-9h20V20z M22,9H2V6c0-0.6,0.4-1,1-1h2v1
		c0,0.6,0.4,1,1,1s1-0.4,1-1V5h10v1c0,0.6,0.4,1,1,1s1-0.4,1-1V5h2c0.6,0,1,0.4,1,1V9z"/>
	<path d="M6,15.5c0.8,0,1.5-0.7,1.5-1.5S6.8,12.5,6,12.5S4.5,13.2,4.5,14S5.2,15.5,6,15.5z"/>
	<path d="M6,19.5c0.8,0,1.5-0.7,1.5-1.5S6.8,16.5,6,16.5S4.5,17.2,4.5,18S5.2,19.5,6,19.5z"/>
	<path d="M10,19.5c0.8,0,1.5-0.7,1.5-1.5s-0.7-1.5-1.5-1.5S8.5,17.2,8.5,18S9.2,19.5,10,19.5z"/>
	<path d="M10,15.5c0.8,0,1.5-0.7,1.5-1.5s-0.7-1.5-1.5-1.5S8.5,13.2,8.5,14S9.2,15.5,10,15.5z"/>
	<path d="M14,15.5c0.8,0,1.5-0.7,1.5-1.5s-0.7-1.5-1.5-1.5s-1.5,0.7-1.5,1.5S13.2,15.5,14,15.5z"/>
	<path d="M14,19.5c0.8,0,1.5-0.7,1.5-1.5s-0.7-1.5-1.5-1.5s-1.5,0.7-1.5,1.5S13.2,19.5,14,19.5z"/>
	<path d="M18,19.5c0.8,0,1.5-0.7,1.5-1.5s-0.7-1.5-1.5-1.5s-1.5,0.7-1.5,1.5S17.2,19.5,18,19.5z"/>
	<path d="M18,15.5c0.8,0,1.5-0.7,1.5-1.5s-0.7-1.5-1.5-1.5s-1.5,0.7-1.5,1.5S17.2,15.5,18,15.5z"/>
</g>
</svg>
