<svg xmlns="http://www.w3.org/2000/svg" viewBox="0 0 196.05 51.47"><title>Untitled-2</title><path d="M186.82,15.14h-3L173.24,41.39H157.47V15.14h-2.71V43.72h20.44l3.43-8.88h13l3.47,8.88H198Zm-7.36,17.37,5.72-14.64,5.52,14.64H179.46ZM62.09,18.81c-2.21-2.34-5.49-3.55-9.82-3.67H42.39V43.72h9.88c4.33-.12,7.61-1.33,9.82-3.67s3.3-5.88,3.3-10.62S64.27,21.13,62.09,18.81ZM62,34.91a8.08,8.08,0,0,1-5.76,5.82,19.19,19.19,0,0,1-5.31.66h-5.8V17.46h5.8a19.21,19.21,0,0,1,5.31.66,8.67,8.67,0,0,1,3.65,2.11A8.48,8.48,0,0,1,62,23.94a18.84,18.84,0,0,1,.68,5.49A18.82,18.82,0,0,1,62,34.91Zm67-11.12A14.6,14.6,0,0,0,126.5,19a12.58,12.58,0,0,0-4.22-3.28,14.93,14.93,0,0,0-11.77,0A12.4,12.4,0,0,0,106.28,19a14.14,14.14,0,0,0-2.52,4.75,19.36,19.36,0,0,0,0,11.28,14.24,14.24,0,0,0,2.52,4.73,12.59,12.59,0,0,0,4.23,3.26,14.93,14.93,0,0,0,11.77,0,12.79,12.79,0,0,0,4.22-3.26A14.3,14.3,0,0,0,129,35.07,19.35,19.35,0,0,0,129,23.79ZM126.5,34a12.12,12.12,0,0,1-1.91,4,9.82,9.82,0,0,1-3.32,2.85A10.14,10.14,0,0,1,116.4,42a10.28,10.28,0,0,1-4.88-1.07,9.7,9.7,0,0,1-3.34-2.85,12.51,12.51,0,0,1-1.91-4,17.52,17.52,0,0,1-.62-4.58,16.56,16.56,0,0,1,.62-4.61,12.61,12.61,0,0,1,1.91-4A9.7,9.7,0,0,1,111.52,18a10.28,10.28,0,0,1,4.88-1.09A10.14,10.14,0,0,1,121.27,18a9.82,9.82,0,0,1,3.32,2.85,12.2,12.2,0,0,1,1.91,4,17.33,17.33,0,0,1,.62,4.61A17.51,17.51,0,0,1,126.5,34ZM102.25,15.14H99.52l-6.5,25H92.93l-7-25H82.54l-7,25H75.5L69,15.14H66.11L74,43.72h3l7.2-25.57h0.07L91.5,43.72h2.89ZM152,41.39H136V15.14h-2.71V43.72H152V41.39ZM30.59,28.77c-1.66-2.44-3.75-4.65-5.56-7a47.46,47.46,0,0,1-5.19-7.51c-1.93-3.91-2.28-9.29,2.79-13C17.57,3.57,12.5,5.83,7.46,8.18a8.27,8.27,0,0,0-5.05,8.19,15.65,15.65,0,0,0,3.82,9.54c2.09,2.62,4.3,5.14,6.5,7.65a4.16,4.16,0,0,1,.47.6l0.05,0.06c-1.23.53-2.46,1.09-3.63,1.64-0.84.39-1.68,0.76-2.54,1.13C2.44,39.07.86,43.05,2.76,47.93a7.31,7.31,0,0,0,6.87,4.8,8.47,8.47,0,0,0,2-.25l0.11,0a9.88,9.88,0,0,0,1.91-1q7.55-3.28,14.95-6.91c3.24-1.56,4.51-4.49,4.59-8A12.72,12.72,0,0,0,30.59,28.77ZM11.13,50.84a6.87,6.87,0,0,1-1.5.17,5.57,5.57,0,0,1-5.27-3.71c-1.56-4-.37-7,3.44-8.74,0.86-.37,1.7-0.76,2.55-1.15,1.25-.58,2.56-1.19,3.85-1.73a1,1,0,0,0,.25-0.1,13.29,13.29,0,0,1,1.36,2.09,9.05,9.05,0,0,1,1.07,4.72A9.62,9.62,0,0,1,11.13,50.84Zm3.32-15.26" transform="translate(-1.97 -1.27)"/></svg>