<?xml version="1.0" encoding="utf-8"?>
<!-- Generator: Adobe Illustrator 19.2.1, SVG Export Plug-In . SVG Version: 6.00 Build 0)  -->
<svg version="1.1" id="Layer_1" xmlns="http://www.w3.org/2000/svg" xmlns:xlink="http://www.w3.org/1999/xlink" x="0px" y="0px"
	 viewBox="0 0 10 6" style="enable-background:new 0 0 10 6;" xml:space="preserve">
<style type="text/css">
	.st0{fill:#0071BC;}
</style>
<title>filter</title>
<g>
	<path class="st0" d="M9.1,3.4C7.6,2,6.2,1.3,4.7,1.4C2.5,1.5,1,3.4,1,3.4l-1-0.8c0.1-0.1,1.8-2.3,4.6-2.5c1.8-0.1,3.6,0.7,5.3,2.4
		L9.1,3.4z"/>
	<path class="st0" d="M5,5.8c-1.1,0-2-0.9-2-2s0.9-2,2-2s2,0.9,2,2S6.1,5.8,5,5.8z M5,3C4.6,3,4.2,3.4,4.2,3.8
		c0,0.4,0.4,0.8,0.8,0.8c0.4,0,0.8-0.4,0.8-0.8C5.8,3.4,5.5,3,5,3z"/>
</g>
</svg>
