<svg xmlns="http://www.w3.org/2000/svg" viewBox="0 0 289.33 171.17"><title>logo</title><path d="M289.67,171.58H0.33V0.42H289.67V171.58Zm-285.33-4H285.67V4.42H4.33V167.58Z" transform="translate(-0.33 -0.42)" style="fill:#fff"/><path d="M44.68,139.65H40.49v7.51H35v-25H45.22c6,0,9.59,3.54,9.59,8.66v0.07C54.8,136.65,50.29,139.65,44.68,139.65Zm4.54-8.76c0-2.47-1.72-3.79-4.47-3.79H40.49v7.65h4.36c2.75,0,4.36-1.65,4.36-3.79v-0.07Z" transform="translate(-0.33 -0.42)" style="fill:#fff"/><path d="M83.09,147.16l-2.29-5.62H70.22l-2.29,5.62H62.31L73,121.95h5.08l10.73,25.21H83.09Zm-7.58-18.6-3.33,8.12h6.65Z" transform="translate(-0.33 -0.42)" style="fill:#fff"/><path d="M109.63,137.18v10h-5.51v-9.87L94.5,122.13h6.44l6,10.05L113,122.13h6.26Z" transform="translate(-0.33 -0.42)" style="fill:#fff"/><path d="M149.94,147.16V130.82l-7,10.7h-0.14l-7-10.59v16.24h-5.4v-25h5.94l6.58,10.59,6.58-10.59h5.94v25h-5.47Z" transform="translate(-0.33 -0.42)" style="fill:#fff"/><path d="M169.37,147.16v-25h18.88V127H174.84v5.08h11.8V137h-11.8v5.26h13.59v4.9H169.37Z" transform="translate(-0.33 -0.42)" style="fill:#fff"/><path d="M219,147.16l-12.12-15.92v15.92h-5.44v-25h5.08l11.73,15.42V122.13h5.44v25H219Z" transform="translate(-0.33 -0.42)" style="fill:#fff"/><path d="M248.3,127.21v20h-5.51v-20h-7.62v-5.08h20.75v5.08H248.3Z" transform="translate(-0.33 -0.42)" style="fill:#fff"/><path d="M35.12,103.29v-8h7.6c3.37,0,4.45-1.09,4.45-3.91V43.23c0-2.82-1.09-3.91-4.45-3.91h-7.6v-8H82.36c15.75,0,23.13,6.19,23.13,18,0,11.19-9.45,16.62-20.42,17.6v0.21c11.4,1.41,14,6.41,14,14.88,0,11.51,2.61,13.25,4.45,13.25,2.6,0,3.69-2.28,3.69-8.69V83.2h7.17v3.37c0,13.9-6,18.9-15,18.9-10.75,0-14-5.87-14-14.77,0-17.38-3.91-21.18-16.62-21.18H62.38V91.34c0,2.83,1.09,3.91,4.45,3.91h7.93v8H35.12ZM62.38,61.47H75.2c11.73,0,15.1-3.8,15.1-11.84,0-6.73-4.45-10.53-14-10.53H62.38V61.47Z" transform="translate(-0.33 -0.42)" style="fill:#fff"/><path d="M177.17,84.39v3.26c0,12.16-4.89,17.27-14,17.27-5.43,0-10.1-2.28-11-8-4,6.08-11,8-17.81,8-8.47,0-15.1-4-15.1-13.79,0-21.07,32.58-10.86,32.58-26.17,0-7-5.87-8.25-11.62-8.25-3,0-8.15,1-10.1,3.58,4-.55,7.17,1.19,7.17,5.65,0,4.89-3.36,6.41-7.6,6.41a7.71,7.71,0,0,1-7.82-8c0-11.07,13.25-13.46,21.83-13.46,14.66,0,21,6.63,21,15.75V93.19c0,2.39,1,3.58,2.6,3.58s2.93-1.52,2.93-8.25V84.39h7Zm-25.3-7.93-11.51,5.21c-3.15,1.41-6.51,3.15-6.51,8.26,0,4.56,2.06,6.84,6.51,6.84,7.38,0,11.51-6.3,11.51-13.25V76.46Z" transform="translate(-0.33 -0.42)" style="fill:#fff"/><path d="M180.32,52.46h10.32V49.64c0-13.9,7.38-20.53,18.78-20.53,7,0,15.2,4.13,15.2,12.06,0,4.34-2.5,7.49-6.95,7.49-4,0-7.06-2.72-7.06-6.3,0-3.37,2.38-5.54,5.53-6a0.58,0.58,0,0,1-.21-0.33,10.11,10.11,0,0,0-5.32-1.52c-5.65,0-7.17,3.8-7.17,8.69v9.23h11.08v7.17H203.45V91.77c0,3.15,1.3,4.35,4.34,4.35h6.63v7.17h-34V96.12h5.87c3,0,4.35-1.2,4.35-4.35V59.63H180.32V52.46Z" transform="translate(-0.33 -0.42)" style="fill:#fff"/><path d="M224.41,103.29V96.12h5c3,0,4.35-1.2,4.35-4.35V64c0-3.15-1.3-4.34-4.35-4.34h-5V52.46h22.15V91.77c0,3.15,1.3,4.35,4.35,4.35h5.32v7.17H224.41ZM238.75,30a7.82,7.82,0,1,1-7.82,7.82A7.86,7.86,0,0,1,238.75,30" transform="translate(-0.33 -0.42)" style="fill:#fff"/></svg>