<svg xmlns="http://www.w3.org/2000/svg" viewBox="0 0 4.65 5.58"><title>filter</title><path d="M0.18,1.66H0.33V5.53a0.16,0.16,0,0,0,.16.16H4.21a0.16,0.16,0,0,0,.16-0.16V1.66H4.52A0.16,0.16,0,0,0,4.67,1.5V0.88A0.16,0.16,0,0,0,4.52.72H3.12V0.26A0.16,0.16,0,0,0,3,.1H1.73a0.16,0.16,0,0,0-.16.16V0.72H0.18A0.16,0.16,0,0,0,0,.88V1.5A0.16,0.16,0,0,0,.18,1.66ZM4.05,5.38H0.64V1.66H4.05V5.38Zm-2.17-5H2.81V0.72H1.88V0.41ZM0.33,1h4V1.35h-4V1Z" transform="translate(-0.02 -0.1)"/><path d="M2.35,5.07A0.16,0.16,0,0,0,2.5,4.91V2.12a0.16,0.16,0,0,0-.31,0V4.91A0.16,0.16,0,0,0,2.35,5.07Z" transform="translate(-0.02 -0.1)"/><path d="M1.42,5.07a0.16,0.16,0,0,0,.16-0.16V2.12a0.16,0.16,0,0,0-.31,0V4.91A0.16,0.16,0,0,0,1.42,5.07Z" transform="translate(-0.02 -0.1)"/><path d="M3.28,5.07a0.16,0.16,0,0,0,.16-0.16V2.12a0.16,0.16,0,0,0-.31,0V4.91A0.16,0.16,0,0,0,3.28,5.07Z" transform="translate(-0.02 -0.1)"/></svg>